<svg xmlns="http://www.w3.org/2000/svg" version="1.1" xmlns:xlink="http://www.w3.org/1999/xlink" xmlns:svgjs="http://svgjs.com/svgjs" width="1440" height="560" preserveAspectRatio="none" viewBox="0 0 1440 560"><g mask="url(&quot;#SvgjsMask1010&quot;)" fill="none"><rect width="1440" height="560" x="0" y="0" fill="rgba(20, 45, 79, 0.72)"></rect><path d="M1377.29,459.143C1414.422,457.103,1438.696,425.078,1457.806,393.176C1477.688,359.985,1498.574,321.321,1480.267,287.236C1461.338,251.995,1417.185,240.327,1377.29,243.271C1342.305,245.853,1315.929,270.768,1297.654,300.712C1278.338,332.362,1263.181,369.827,1279.834,402.956C1297.884,438.865,1337.161,461.348,1377.29,459.143" fill="rgba(37, 78, 122, 0.86)" class="triangle-float3"></path><path d="M376.861,534.646C393.655,534.609,404.243,518.58,412.435,503.92C420.357,489.743,426.375,473.51,419.153,458.964C411.207,442.961,394.674,430.883,376.861,432.273C360.559,433.545,351.942,450.147,344.638,464.777C338.339,477.393,335.106,491.274,341.012,504.079C348.061,519.363,360.03,534.683,376.861,534.646" fill="rgba(37, 78, 122, 0.86)" class="triangle-float3"></path><path d="M624.1827907843716 29.37804986804559L517.6593568132292 101.08140175731681 617.6737533390063 152.04128210302744z" fill="rgba(37, 78, 122, 0.86)" class="triangle-float2"></path><path d="M713.93 305.74 a172.24 172.24 0 1 0 344.48 0 a172.24 172.24 0 1 0 -344.48 0z" fill="rgba(37, 78, 122, 0.86)" class="triangle-float3"></path><path d="M455.3889597018425 372.4384612174657L507.0817658470092 261.5828806985967 396.22618532814016 209.89007455343 344.5333791829735 320.74565507229903z" fill="rgba(37, 78, 122, 0.86)" class="triangle-float1"></path><path d="M338.11 476.15 a96.93 96.93 0 1 0 193.86 0 a96.93 96.93 0 1 0 -193.86 0z" fill="rgba(37, 78, 122, 0.86)" class="triangle-float3"></path><path d="M1045.8204214491836 182.81284426635187L1076.885172790258 255.99681220694777 1171.1287490306147 172.8077012250386z" fill="rgba(37, 78, 122, 0.86)" class="triangle-float1"></path><path d="M1087.4726170590407 55.821644857570305L1149.9864520979588 152.0845091876849 1246.2493164280734 89.5706741487667 1183.7354813891552-6.69219018134789z" fill="rgba(37, 78, 122, 0.86)" class="triangle-float1"></path><path d="M1111.856633711064 372.6142604920751L1082.5840465708914 222.01985476225917 931.9896408410754 251.29244190243182 961.2622279812481 401.8868476322478z" fill="rgba(37, 78, 122, 0.86)" class="triangle-float1"></path><path d="M292.9893207568042 7.721491600221739L251.28933884521803 153.146610826592 396.7144580715883 194.84659273817812 438.4144399831745 49.4214735118079z" fill="rgba(37, 78, 122, 0.86)" class="triangle-float2"></path><path d="M1164.571,618.3C1201.307,617.631,1233.355,596.034,1252.224,564.507C1271.674,532.008,1279.208,491.448,1260.041,458.781C1241.061,426.432,1202.063,416.128,1164.571,415.118C1124.719,414.044,1080.548,419.372,1059.751,453.383C1038.318,488.433,1049.166,533.133,1071.204,567.806C1091.546,599.811,1126.655,618.991,1164.571,618.3" fill="rgba(37, 78, 122, 0.86)" class="triangle-float1"></path><path d="M66.99186179810468 14.063815190895063L142.08797520354852 144.13409906007792 272.15825907273137 69.03798565463407 197.06214566728752-61.03229821454878z" fill="rgba(37, 78, 122, 0.86)" class="triangle-float1"></path><path d="M1217.43 153.63 a172.62 172.62 0 1 0 345.24 0 a172.62 172.62 0 1 0 -345.24 0z" fill="rgba(37, 78, 122, 0.86)" class="triangle-float2"></path><path d="M543.0216276328896 203.67890554321355L415.0795344056699 156.973659601551 433.704716235389 274.5684295900379z" fill="rgba(37, 78, 122, 0.86)" class="triangle-float3"></path><path d="M461.58 266.73 a172.9 172.9 0 1 0 345.8 0 a172.9 172.9 0 1 0 -345.8 0z" fill="rgba(37, 78, 122, 0.86)" class="triangle-float3"></path><path d="M1119.3186386736918 185.89423283780405L1064.205308050663 277.6182181977114 1211.0426240335992 241.00756346083287z" fill="rgba(37, 78, 122, 0.86)" class="triangle-float2"></path><path d="M821.066,445.822C882.426,451.281,943.848,419.98,974.056,366.293C1003.77,313.485,995.507,246.976,960.961,197.195C930.606,153.454,874.292,147.155,821.066,145.834C764.378,144.427,696.662,140.663,668.597,189.936C640.659,238.987,680.039,294.211,708.933,342.704C736.791,389.459,766.855,440.999,821.066,445.822" fill="rgba(37, 78, 122, 0.86)" class="triangle-float2"></path></g><defs><mask id="SvgjsMask1010"><rect width="1440" height="560" fill="#ffffff"></rect></mask><style>
            @keyframes float1 {
                0%{transform: translate(0, 0)}
                50%{transform: translate(-10px, 0)}
                100%{transform: translate(0, 0)}
            }

            .triangle-float1 {
                animation: float1 5s infinite;
            }

            @keyframes float2 {
                0%{transform: translate(0, 0)}
                50%{transform: translate(-5px, -5px)}
                100%{transform: translate(0, 0)}
            }

            .triangle-float2 {
                animation: float2 4s infinite;
            }

            @keyframes float3 {
                0%{transform: translate(0, 0)}
                50%{transform: translate(0, -10px)}
                100%{transform: translate(0, 0)}
            }

            .triangle-float3 {
                animation: float3 6s infinite;
            }
        </style></defs></svg>