<svg xmlns="http://www.w3.org/2000/svg" version="1.1" xmlns:xlink="http://www.w3.org/1999/xlink" xmlns:svgjs="http://svgjs.com/svgjs" width="1440" height="560" preserveAspectRatio="none" viewBox="0 0 1440 560"><g mask="url(&quot;#SvgjsMask1020&quot;)" fill="none"><path d="M-126.61 396.04 a130.74 130.74 0 1 0 261.48 0 a130.74 130.74 0 1 0 -261.48 0z" fill="rgba(28, 83, 142, 0.4)" class="triangle-float2"></path><path d="M1255.5838870538746 57.88537939963863L1157.421415562298-16.085348560938876 1181.613159093297 156.04785089121506z" fill="rgba(28, 83, 142, 0.4)" class="triangle-float2"></path><path d="M1252.3613696220793 172.41062260150517L1271.9262762946805 33.19907804200605 1132.7147317351814 13.634171369404868 1113.1498250625802 152.84571592890399z" fill="rgba(28, 83, 142, 0.4)" class="triangle-float3"></path><path d="M539.044,357.112C596.469,357.033,647.626,322.126,675.26,271.787C701.872,223.31,699.918,164.089,670.82,117.062C643.164,72.365,591.599,50.868,539.044,51.642C487.936,52.395,440.777,77.418,413.823,120.847C385.231,166.915,376.787,224.255,402.178,272.162C429.129,323.013,481.493,357.191,539.044,357.112" fill="rgba(28, 83, 142, 0.4)" class="triangle-float2"></path><path d="M1034.821574867802 11.1938008510364L992.6954824977587 93.87091229236373 1117.4986863091292 53.31989322107968z" fill="rgba(28, 83, 142, 0.4)" class="triangle-float2"></path><path d="M813.012,535.727C865.575,533.58,913.329,505.948,939.473,460.298C965.456,414.929,965.654,359.526,940.022,313.957C913.871,267.466,866.32,237.362,813.012,235.473C756.138,233.457,699.291,255.944,669.387,304.364C638.023,355.147,635.811,420.707,667.291,471.418C697.304,519.765,756.154,538.05,813.012,535.727" fill="rgba(28, 83, 142, 0.4)" class="triangle-float1"></path><path d="M507.85253285178214 445.9676585150668L416.51643553997405 475.6445555087186 446.19333253362595 566.9806528205266 537.529429845434 537.3037558268749z" fill="rgba(28, 83, 142, 0.4)" class="triangle-float2"></path><path d="M598.359,200.632C638.239,200.472,660.213,158.05,677.888,122.301C693.052,91.63,700.465,56.922,684.33,26.75C667.3,-5.095,634.472,-26.444,598.359,-26.417C562.289,-26.39,529.747,-4.861,512.611,26.878C496.283,57.121,502.51,92.122,517.72,122.942C535.424,158.816,558.354,200.792,598.359,200.632" fill="rgba(28, 83, 142, 0.4)" class="triangle-float1"></path><path d="M892.9778751657436 353.1864512521315L835.0672803022152 223.11712558997817 762.9085495035903 411.09704611565996z" fill="rgba(28, 83, 142, 0.4)" class="triangle-float3"></path><path d="M1291.8108741867595 573.8001460166306L1326.0366957224046 489.0882650863829 1241.324814792157 454.86244355073774 1207.098993256512 539.5743244809854z" fill="rgba(28, 83, 142, 0.4)" class="triangle-float1"></path><path d="M114.11 28.88 a124.64 124.64 0 1 0 249.28 0 a124.64 124.64 0 1 0 -249.28 0z" fill="rgba(28, 83, 142, 0.4)" class="triangle-float3"></path><path d="M841.2 400.05 a95.3 95.3 0 1 0 190.6 0 a95.3 95.3 0 1 0 -190.6 0z" fill="rgba(28, 83, 142, 0.4)" class="triangle-float1"></path><path d="M278.92 461.76 a162.99 162.99 0 1 0 325.98 0 a162.99 162.99 0 1 0 -325.98 0z" fill="rgba(28, 83, 142, 0.4)" class="triangle-float1"></path><path d="M496.42723493678744 622.1503881237098L568.4449794986779 582.2303004478406 472.5559757039287 494.1637274429395z" fill="rgba(28, 83, 142, 0.4)" class="triangle-float1"></path></g><defs><mask id="SvgjsMask1020"><rect width="1440" height="560" fill="#ffffff"></rect></mask><style>
            @keyframes float1 {
                0%{transform: translate(0, 0)}
                50%{transform: translate(-10px, 0)}
                100%{transform: translate(0, 0)}
            }

            .triangle-float1 {
                animation: float1 5s infinite;
            }

            @keyframes float2 {
                0%{transform: translate(0, 0)}
                50%{transform: translate(-5px, -5px)}
                100%{transform: translate(0, 0)}
            }

            .triangle-float2 {
                animation: float2 4s infinite;
            }

            @keyframes float3 {
                0%{transform: translate(0, 0)}
                50%{transform: translate(0, -10px)}
                100%{transform: translate(0, 0)}
            }

            .triangle-float3 {
                animation: float3 6s infinite;
            }
        </style></defs></svg>